<?xml version="1.0" standalone="no"?>
<!DOCTYPE svg PUBLIC "-//W3C//DTD SVG 20010904//EN"
 "http://www.w3.org/TR/2001/REC-SVG-20010904/DTD/svg10.dtd">
<svg version="1.0" xmlns="http://www.w3.org/2000/svg"
 width="700.000000pt" height="700.000000pt" viewBox="0 0 700.000000 700.000000"
 preserveAspectRatio="xMidYMid meet">
<metadata>
Created by potrace 1.14, written by Peter Selinger 2001-2017
</metadata>
<g transform="translate(0.000000,700.000000) scale(0.100000,-0.100000)"
fill="#000000" stroke="none">
<path d="M1355 6993 c-104 -12 -234 -40 -322 -68 -519 -170 -895 -595 -1005
-1137 l-23 -113 0 -2175 0 -2175 23 -113 c40 -199 109 -369 216 -531 228 -348
577 -580 991 -657 96 -18 193 -19 2265 -19 2069 0 2169 1 2265 19 206 38 386
110 554 220 349 228 573 566 658 991 17 85 18 211 18 2265 l0 2175 -23 113
c-60 294 -196 554 -400 761 -193 195 -402 319 -666 395 -198 58 -130 56 -2419
55 -1156 -1 -2115 -4 -2132 -6z m1663 -1501 c-1 -5 -97 -94 -213 -198 -421
-378 -583 -567 -1020 -1187 l-160 -228 -3 798 c-1 439 0 804 3 811 3 9 153 12
701 12 382 0 694 -4 692 -8z m2356 -1 c12 -18 -184 -314 -679 -1026 -191 -275
-634 -930 -984 -1455 -837 -1254 -990 -1472 -1046 -1496 -28 -11 -122 -14
-512 -14 -521 0 -523 0 -523 55 0 36 538 836 1205 1790 254 365 431 623 1102
1610 224 330 351 508 373 523 l33 22 513 0 c286 0 515 -4 518 -9z m-5 -3910
c-4 -19 -17 -43 -29 -55 -20 -21 -25 -21 -723 -24 l-702 -2 105 62 c378 226
838 702 1199 1243 48 72 100 154 117 182 l29 53 6 -713 c3 -391 2 -727 -2
-746z"/>
</g>
</svg>
